<?xml version="1.0" ?><!DOCTYPE svg  PUBLIC '-//W3C//DTD SVG 1.1//EN'  'http://www.w3.org/Graphics/SVG/1.1/DTD/svg11.dtd'><svg enable-background="new 0 0 512 512" height="512px" id="Layer_1" version="1.1" viewBox="0 0 512 512" width="512px" xml:space="preserve" xmlns="http://www.w3.org/2000/svg" xmlns:xlink="http://www.w3.org/1999/xlink"><path d="M149.495,289.933h1.624l154.532-154.531h-83.974V0h-72.181C69.41,0,4.53,64.88,4.53,144.947  C4.53,225.009,69.41,289.933,149.495,289.933 M462.198,37.714L119.597,380.356l29.94,29.944l64.755-64.802l64.794,64.802  l29.941-29.97l-64.798-64.745l25.67-25.653h101.957c27.12,0,49.077-21.979,49.077-49.077V138.858l58.816-58.771h27.72V37.714  H462.198z M351.356,407.948c-28.748,0-52.026,23.316-52.026,52.031c0,28.74,23.278,52.021,52.026,52.021  c28.747,0,52.025-23.28,52.025-52.021C403.381,431.265,380.103,407.948,351.356,407.948 M74.791,407.948  c-28.747,0-52.023,23.316-52.023,52.031c0,28.74,23.277,52.021,52.023,52.021c28.748,0,52.024-23.28,52.024-52.021  C126.817,431.265,103.538,407.948,74.791,407.948"/></svg>