<?xml version="1.0" ?><svg height="491.404" id="svg1538" width="225.736" xmlns="http://www.w3.org/2000/svg" xmlns:cc="http://creativecommons.org/ns#" xmlns:dc="http://purl.org/dc/elements/1.1/" xmlns:inkscape="http://www.inkscape.org/namespaces/inkscape" xmlns:rdf="http://www.w3.org/1999/02/22-rdf-syntax-ns#" xmlns:sodipodi="http://sodipodi.sourceforge.net/DTD/sodipodi-0.dtd" xmlns:svg="http://www.w3.org/2000/svg"><defs id="defs1540"><marker id="ArrowEnd" markerHeight="3" markerUnits="strokeWidth" markerWidth="4" orient="auto" refX="0" refY="5" viewBox="0 0 10 10"><path d="M 0 0 L 10 5 L 0 10 z" id="path1543"/></marker><marker id="ArrowStart" markerHeight="3" markerUnits="strokeWidth" markerWidth="4" orient="auto" refX="10" refY="5" viewBox="0 0 10 10"><path d="M 10 0 L 0 5 L 10 10 z" id="path1546"/></marker></defs><g id="g1548"><g id="g1550"><path d="M 113.129 80.035C 135.23 80.035 153.147 62.119 153.147 40.017C 153.147 17.918 135.23 0 113.129 0C 91.0312 0 73.1122 17.918 73.1122 40.017C 73.1122 62.119 91.0312 80.035 113.129 80.035z" id="path1552" style="stroke:none; fill:#000000"/><path d="M 113.129 40.017" id="path1554" style="stroke:none; fill:#000000"/></g><path d="M 107.212 333.911L 107.228 472.514C 107.228 497.7 69.4942 497.7 69.4942 472.514L 69.4782 334.87L 18.8082 334.87L 72.9782 146.923L 64.5682 146.923L 33.0582 252.95C 25.5582 276.075 -6.19176 266.575 1.07224 241.812L 36.0582 126.623C 39.8082 113.487 56.4212 90.2 85.1762 90.2L 111.691 90.2L 111.691 90.2L 140.228 90.2C 168.728 90.2 185.415 113.683 189.728 126.623L 224.728 241.7C 231.728 266.45 200.228 276.7 192.728 252.575L 161.228 146.923L 152.122 146.923L 206.728 334.87L 155.978 334.87L 155.978 472.7C 155.978 497.7 118.401 497.575 118.401 472.7L 118.401 333.911L 107.212 333.911z" id="path1556" style="stroke:none; fill:#000000"/></g></svg>